<?xml version="1.0" encoding="iso-8859-1"?>
<!-- Uploaded to: SVG Repo, www.svgrepo.com, Generator: SVG Repo Mixer Tools -->
<svg height="800px" width="800px" version="1.1" id="Layer_1" xmlns="http://www.w3.org/2000/svg" xmlns:xlink="http://www.w3.org/1999/xlink" 
	 viewBox="0 0 511.671 511.671" xml:space="preserve">
<g>
	<path style="fill:#E6E9ED;" d="M106.596,213.191c0,5.887-4.771,10.665-10.657,10.665s-10.657-4.778-10.657-10.665
		s4.771-10.665,10.657-10.665S106.596,207.305,106.596,213.191z"/>
	<path style="fill:#E6E9ED;" d="M170.555,213.191c0,5.887-4.771,10.665-10.657,10.665s-10.657-4.778-10.657-10.665
		s4.771-10.665,10.657-10.665S170.555,207.305,170.555,213.191z"/>
	<path style="fill:#E6E9ED;" d="M266.493,42.629c0,5.887-4.771,10.665-10.657,10.665s-10.657-4.778-10.657-10.665
		s4.771-10.649,10.657-10.649C261.722,31.979,266.493,36.742,266.493,42.629z"/>
	<path style="fill:#E6E9ED;" d="M341.125,106.588c0,5.887-4.777,10.665-10.681,10.665c-5.871,0-10.649-4.778-10.649-10.665
		s4.778-10.649,10.649-10.649C336.348,95.938,341.125,100.701,341.125,106.588z"/>
	<path style="fill:#E6E9ED;" d="M191.877,191.877c0,5.887-4.771,10.649-10.657,10.649s-10.665-4.763-10.665-10.649
		s4.778-10.665,10.665-10.665S191.877,185.99,191.877,191.877z"/>
	<path style="fill:#E6E9ED;" d="M191.877,149.232c0,5.887-4.771,10.665-10.657,10.665s-10.665-4.778-10.665-10.665
		s4.778-10.665,10.665-10.665S191.877,143.346,191.877,149.232z"/>
	<path style="fill:#E6E9ED;" d="M191.877,106.588c0,5.887-4.771,10.665-10.657,10.665s-10.665-4.778-10.665-10.665
		s4.778-10.649,10.665-10.649S191.877,100.701,191.877,106.588z"/>
	<path style="fill:#E6E9ED;" d="M341.125,149.232c0,5.887-4.777,10.665-10.681,10.665c-5.871,0-10.649-4.778-10.649-10.665
		s4.778-10.665,10.649-10.665C336.348,138.567,341.125,143.346,341.125,149.232z"/>
	<path style="fill:#E6E9ED;" d="M191.877,234.506c0,5.887-4.771,10.665-10.657,10.665s-10.665-4.778-10.665-10.665
		s4.778-10.649,10.665-10.649S191.877,228.619,191.877,234.506z"/>
	<path style="fill:#E6E9ED;" d="M191.877,277.15c0,5.887-4.771,10.665-10.657,10.665s-10.665-4.778-10.665-10.665
		s4.778-10.665,10.665-10.665S191.877,271.264,191.877,277.15z"/>
	<path style="fill:#E6E9ED;" d="M341.125,191.877c0,5.887-4.777,10.649-10.681,10.649c-5.871,0-10.649-4.763-10.649-10.649
		s4.778-10.665,10.649-10.665C336.348,181.212,341.125,185.99,341.125,191.877z"/>
	<path style="fill:#E6E9ED;" d="M170.555,255.836c0,5.887-4.771,10.649-10.657,10.649s-10.657-4.763-10.657-10.649
		s4.771-10.665,10.657-10.665S170.555,249.949,170.555,255.836z"/>
	<path style="fill:#E6E9ED;" d="M106.596,255.836c0,5.887-4.771,10.649-10.657,10.649s-10.658-4.762-10.658-10.649
		s4.771-10.665,10.657-10.665S106.596,249.949,106.596,255.836z"/>
	<path style="fill:#E6E9ED;" d="M106.596,298.465c0,5.887-4.771,10.665-10.657,10.665s-10.657-4.778-10.657-10.665
		s4.771-10.649,10.657-10.649S106.596,292.578,106.596,298.465z"/>
	<path style="fill:#E6E9ED;" d="M117.261,341.109c0,5.887-4.778,10.665-10.665,10.665s-10.657-4.778-10.657-10.665
		s4.771-10.665,10.657-10.665S117.261,335.223,117.261,341.109z"/>
	<path style="fill:#E6E9ED;" d="M159.898,351.773c0,5.887-4.771,10.649-10.657,10.649s-10.665-4.763-10.665-10.649
		s4.778-10.665,10.665-10.665S159.898,345.888,159.898,351.773z"/>
	<path style="fill:#E6E9ED;" d="M191.877,383.754c0,5.887-4.771,10.649-10.657,10.649s-10.665-4.763-10.665-10.649
		s4.778-10.665,10.665-10.665S191.877,377.867,191.877,383.754z"/>
	<path style="fill:#E6E9ED;" d="M191.877,426.383c0,5.887-4.771,10.665-10.657,10.665s-10.665-4.778-10.665-10.665
		s4.778-10.649,10.665-10.649S191.877,420.496,191.877,426.383z"/>
	<path style="fill:#E6E9ED;" d="M405.084,95.938c0,5.887-4.777,10.649-10.68,10.649c-5.872,0-10.65-4.763-10.65-10.649
		c0-5.887,4.778-10.665,10.65-10.665C400.307,85.274,405.084,90.05,405.084,95.938z"/>
	<path style="fill:#E6E9ED;" d="M362.424,127.918c0,5.887-4.762,10.649-10.649,10.649s-10.649-4.763-10.649-10.649
		c0-5.886,4.763-10.665,10.649-10.665C357.662,117.253,362.424,122.031,362.424,127.918z"/>
	<path style="fill:#E6E9ED;" d="M447.713,127.918c0,5.887-4.777,10.649-10.648,10.649c-5.903,0-10.682-4.763-10.682-10.649
		c0-5.886,4.778-10.665,10.682-10.665C442.936,117.253,447.713,122.031,447.713,127.918z"/>
	<path style="fill:#E6E9ED;" d="M447.713,170.547c0,5.887-4.777,10.665-10.648,10.665c-5.903,0-10.682-4.778-10.682-10.665
		s4.778-10.649,10.682-10.649C442.936,159.898,447.713,164.66,447.713,170.547z"/>
	<path style="fill:#E6E9ED;" d="M447.713,213.191c0,5.887-4.777,10.665-10.648,10.665c-5.903,0-10.682-4.778-10.682-10.665
		s4.778-10.665,10.682-10.665C442.936,202.526,447.713,207.305,447.713,213.191z"/>
	<path style="fill:#E6E9ED;" d="M447.713,255.836c0,5.887-4.777,10.649-10.648,10.649c-5.903,0-10.682-4.763-10.682-10.649
		s4.778-10.665,10.682-10.665C442.936,245.171,447.713,249.949,447.713,255.836z"/>
	<path style="fill:#E6E9ED;" d="M437.065,298.465c0,5.887-4.779,10.665-10.682,10.665c-5.871,0-10.648-4.778-10.648-10.665
		s4.777-10.649,10.648-10.649C432.285,287.815,437.065,292.578,437.065,298.465z"/>
	<path style="fill:#E6E9ED;" d="M394.404,309.13c0,5.887-4.764,10.665-10.65,10.665s-10.648-4.778-10.648-10.665
		s4.762-10.665,10.648-10.665S394.404,303.243,394.404,309.13z"/>
	<path style="fill:#E6E9ED;" d="M351.774,309.13c0,5.887-4.778,10.665-10.649,10.665c-5.902,0-10.681-4.778-10.681-10.665
		s4.778-10.665,10.681-10.665C346.996,298.465,351.774,303.243,351.774,309.13z"/>
	<path style="fill:#E6E9ED;" d="M341.125,362.424c0,5.887-4.777,10.665-10.681,10.665c-5.871,0-10.649-4.778-10.649-10.665
		s4.778-10.649,10.649-10.649C336.348,351.773,341.125,356.536,341.125,362.424z"/>
	<path style="fill:#E6E9ED;" d="M341.125,405.068c0,5.887-4.777,10.665-10.681,10.665c-5.871,0-10.649-4.778-10.649-10.665
		s4.778-10.665,10.649-10.665C336.348,394.402,341.125,399.182,341.125,405.068z"/>
	<path style="fill:#E6E9ED;" d="M341.125,447.713c0,5.887-4.777,10.649-10.681,10.649c-5.871,0-10.649-4.763-10.649-10.649
		s4.778-10.665,10.649-10.665C336.348,437.048,341.125,441.826,341.125,447.713z"/>
	<path style="fill:#E6E9ED;" d="M362.424,170.547c0,5.887-4.762,10.665-10.649,10.665s-10.649-4.778-10.649-10.665
		s4.763-10.649,10.649-10.649C357.662,159.898,362.424,164.66,362.424,170.547z"/>
	<path style="fill:#E6E9ED;" d="M362.424,213.191c0,5.887-4.762,10.665-10.649,10.665s-10.649-4.778-10.649-10.665
		s4.763-10.665,10.649-10.665C357.662,202.526,362.424,207.305,362.424,213.191z"/>
	<path style="fill:#E6E9ED;" d="M138.575,181.212c0,5.887-4.771,10.665-10.657,10.665s-10.657-4.778-10.657-10.665
		s4.771-10.665,10.657-10.665S138.575,175.325,138.575,181.212z"/>
</g>
<g>
	<path style="fill:#8CC153;" d="M127.918,181.212c17.661,0,31.979,14.319,31.979,31.979v74.624h63.959v63.959h-95.938
		c-17.661,0-31.979-14.319-31.979-31.979V213.191C95.939,195.531,110.257,181.212,127.918,181.212z"/>
	<path style="fill:#8CC153;" d="M394.404,95.938c-23.549,0-42.63,19.081-42.63,42.629v85.289h-85.281v85.273h127.911
		c23.562,0,42.66-19.081,42.66-42.645V138.567C437.065,115.02,417.967,95.938,394.404,95.938z"/>
</g>
<path style="fill:#A0D468;" d="M255.836,42.629c-41.208,0-74.616,33.416-74.616,74.624v362.439h149.225V117.253
	C330.444,76.045,297.044,42.629,255.836,42.629z"/>
<g style="opacity:0.2;">
	<path style="fill:#FFFFFF;" d="M255.836,42.629c-3.623,0-7.175,0.265-10.657,0.765c36.157,5.169,63.967,36.274,63.967,73.859
		v362.439h21.299V117.253C330.444,76.045,297.044,42.629,255.836,42.629z"/>
</g>
<path style="fill:#434A54;" d="M501.024,458.362H10.657C4.77,458.362,0,463.14,0,469.027s4.77,10.665,10.657,10.665h490.366
	c5.871,0,10.648-4.778,10.648-10.665S506.895,458.362,501.024,458.362z"/>
</svg>