<?xml version="1.0" ?>
<!-- Uploaded to: SVG Repo, www.svgrepo.com, Generator: SVG Repo Mixer Tools -->
<svg fill="#000000" width="800px" height="800px" viewBox="0 0 64 64" xmlns="http://www.w3.org/2000/svg">
<g id="a"/>
<g id="b"/>
<g id="c"/>
<g id="d"/>
<g id="e"/>
<g id="f">
<path d="M47.59,29l-1.46-17.83c-.08-.99-.7-1.84-1.62-2.23l-11.19-4.68c-.83-.35-1.79-.35-2.62,0h0l-11.19,4.68c-.92,.38-1.54,1.24-1.62,2.23l-1.46,17.83c-.07,.88,.18,1.77,.71,2.48l3.78,5.12-2.2,2.33c-.66,.69-.93,1.67-.74,2.6l3.51,16.68c.22,1.03,1.14,1.78,2.19,1.78h17.32c1.05,0,1.97-.75,2.19-1.78l3.4-16.14c.2-.94-.08-1.91-.74-2.6l-2.72-2.87,3.78-5.12c.53-.72,.78-1.6,.71-2.48ZM33,7.21l7.48,7.47,.94,13.18-3.74,7.82h-4.68V7.21Zm-14.59,21.95l1.46-17.83c.02-.24,.17-.45,.4-.55l7.44-3.11-5.86,5.86c-.17,.17-.27,.4-.29,.64l-.99,13.82c-.01,.17,.02,.35,.09,.5l3.44,7.2h-1.4l-3.97-5.39c-.24-.33-.35-.73-.32-1.13ZM31,7.21v28.47h-4.68l-3.74-7.82,.94-13.18,7.48-7.47Zm-10.86,33.1l2.48-2.62h17.02l-12.26,14.44-6.14-4.7-1.33-6.3c-.06-.29,.02-.6,.23-.82Zm3.28,17.5l-1.55-7.38,9.9,7.57h-8.11c-.11,0-.21-.08-.23-.19Zm20.95-16.96c.21,.22,.29,.52,.23,.82l-3.4,16.14c-.02,.11-.12,.19-.23,.19h-5.92l-6.08-4.66,12.87-15.16,2.53,2.67Zm-3.07-5.16h-1.4l3.44-7.19c.07-.16,.11-.33,.09-.5l-.99-13.82c-.02-.24-.12-.47-.29-.64l-5.86-5.86,7.44,3.11c.23,.09,.38,.3,.4,.55l1.46,17.83c.03,.4-.08,.81-.32,1.13l-3.97,5.39Z"/>
</g>
<g id="g"/>
<g id="h"/>
<g id="i"/>
<g id="j"/>
<g id="k"/>
<g id="l"/>
<g id="m"/>
<g id="n"/>
<g id="o"/>
<g id="p"/>
<g id="q"/>
<g id="r"/>
<g id="s"/>
<g id="t"/>
<g id="u"/>
<g id="v"/>
<g id="w"/>
<g id="x"/>
<g id="y"/>
<g id="a`"/>
<g id="aa"/>
<g id="ab"/>
<g id="ac"/>
<g id="ad"/>
<g id="ae"/>
<g id="af"/>
<g id="ag"/>
<g id="ah"/>
<g id="ai"/>
<g id="aj"/>
<g id="ak"/>
<g id="al"/>
<g id="am"/>
<g id="an"/>
<g id="ao"/>
<g id="ap"/>
<g id="aq"/>
<g id="ar"/>
<g id="as"/>
<g id="at"/>
<g id="au"/>
<g id="av"/>
<g id="aw"/>
<g id="ax"/>
</svg>